<?xml version="1.0" encoding="utf-8"?>
<!-- Generator: Adobe Illustrator 17.0.0, SVG Export Plug-In . SVG Version: 6.00 Build 0)  -->
<!DOCTYPE svg PUBLIC "-//W3C//DTD SVG 1.1//EN" "http://www.w3.org/Graphics/SVG/1.1/DTD/svg11.dtd">
<svg version="1.1" id="Capa_1" xmlns="http://www.w3.org/2000/svg" xmlns:xlink="http://www.w3.org/1999/xlink" x="0px" y="0px"
	 width="365.766px" height="277.614px" viewBox="0 0 365.766 277.614" enable-background="new 0 0 365.766 277.614"
	 xml:space="preserve">
<g>
	<rect x="0" y="0" fill="#FFFFFF" width="365.766" height="277.614"/>
	<rect x="9.994" y="9.954" width="345.946" height="205.405"/>
	<polygon fill="#E20613" points="80.156,58.683 118.156,143.183 163.656,127.683 187.156,125.183 217.156,131.683 256.156,132.183 
		285.656,122.183 299.156,112.683 258.656,42.183 230.656,47.183 186.656,39.683 149.656,36.183 110.656,45.683 	"/>
	<polygon fill="#E20613" points="30.656,120.183 54.156,109.183 86.156,105.183 132.656,107.683 162.156,131.683 174.156,157.183 
		154.156,165.683 129.156,168.183 103.656,164.183 81.656,164.183 56.656,175.183 	"/>
	<polygon fill="#E20613" points="355.94,121.181 335.656,82.683 323.656,87.183 306.656,92.183 290.656,91.683 187.656,115.683 
		217.156,184.183 248.656,170.683 270.656,165.683 299.156,170.183 327.656,174.183 347.156,169.683 355.94,165.482 	"/>
	<path fill="#FFFFFF" d="M300.323,95.683c18.5-0.5,33.458-8.844,33.458-8.844l22.159,45.612V118.06l-19.451-39.71
		c0,0-16.333,10.333-36.833,11.166c-3.647,0.148-6.878-0.146-9.753-0.73c-12.785-22.573-29.124-51.438-29.124-51.438
		s-27.79,10.252-49.706,4.836c-25.274-6.246-32.14-12.23-64.011-9.17c-24.136,2.763-50.88,14.32-63.865,20.521l-3.041-6.727
		l-9.406,3.688l23.735,52.432c-10.558-1.414-26.733-0.42-39.829,3.256c-8.924,2.505-18.02,7.326-22.647,9.812l-2.636-5.433
		l-7.05,3.131l48.644,101.666h9.263l-19.272-39.713c4.12-2.357,10.587-6.545,22.323-8.838c10.875-2.125,14.542-1.458,27.375,1.375
		c6.448,1.424,10.456,2.384,14.645,2.818l20.08,44.357h10.973l-20.03-44.308c1.376-0.093,2.861-0.214,4.499-0.368
		c14.167-1.334,24.833-5.666,24.833-5.666c3.834-1.333,9.834-3.834,12.334-6.334c-1.048-2.534-7.09-15.559-12.602-27.378
		c3.227-0.83,6.278-1.481,9.019-1.872c5.157-0.735,9.616-0.612,13.962-0.028l38.323,85.954h9.127L222.65,186.37
		c6.251-3.16,19.565-9.63,24.339-11.354c6-2.166,10.668-4.499,18.834-5.166c8.166-0.667,15.666-0.001,22.333,1.166
		c6.667,1.167,18.167,3.501,24.833,4.334c6.667,0.833,11.584,1.749,19,1.166c7.504-0.553,17.21-3.392,23.951-7.943V161.6
		c-2.051,1.262-10.578,6.287-19.117,8.083c-7.934,1.751-10.777,1.039-16.574,0.403c-5.798-0.636-16.426-2.57-23.926-4.07
		c-4.448-0.89-11.236-1.848-18.042-2.333c-4.671-0.333-9.841-0.337-12.292-0.167c-7.833,0.542-14.833,3-20.166,5
		c-5.334,2-22.834,10.167-26,11.833L197.608,131.2c3.393,0.8,6.957,1.714,10.947,2.578c7.785,1.686,17.19,3.176,30.101,3.238
		c33.946,0.165,63.171-19.413,66.167-21.916c-0.503-0.869-5.064-8.914-11.073-19.522C295.805,95.697,297.987,95.747,300.323,95.683z
		 M103.426,160.115c-8.895-1.182-15.02-0.641-22.27,0.901c-7.25,1.542-17.412,5.797-23.078,8.964
		c-3-6.333-23.391-48.375-23.391-48.375c3.653-1.973,14.046-7.276,21.969-9.422c12-3.25,22.333-4,31-3.5
		c2.886,0.167,6.378,0.546,9.89,1.007l24.758,54.692C116.354,163.254,110.467,161.05,103.426,160.115z M170.296,156.608
		c0,0-6.864,3.589-17.197,5.756c-7.439,1.559-13.692,2.492-19.477,2.712l-8.729-19.309c8.458-3.534,22.178-9.076,34.594-12.807
		L170.296,156.608z M294.239,112.6c-5.25,3.833-29.127,16.282-53.604,16.282c-29.067,0-46.812-10.949-68.843-7.14
		c-18.779,3.247-50.746,16.878-50.746,16.878L85.641,61.1c0,0,32.932-16.833,63.969-20.438c28.995-2.783,38.296,4.522,60.463,9.522
		c18.98,4.282,47.166-3.167,47.166-3.167S292.79,110.092,294.239,112.6z"/>
	<g>
		<path d="M32.236,228.034c2.2,0.57,4.031,1.766,5.492,3.587c1.461,1.821,2.191,3.852,2.191,6.09c0,4.934-5.104,11.82-15.312,20.662
			v7.911H9.982c0.228-2.924,1.198-8.012,2.91-15.264c1.559-6.606,2.34-11.6,2.34-14.979c0-0.417-0.4-0.606-1.2-0.569h-2.285
			l1.65-7.438H32.236z M29.295,238.405c0-2.08-1.049-3.121-3.144-3.121c-0.495,0-1.01,0.057-1.543,0.17v10.27
			C27.732,243.115,29.295,240.674,29.295,238.405z"/>
		<path d="M70.29,249.345c-0.229,4.595-1.538,8.506-3.931,11.732c-2.696,3.721-6.228,5.581-10.595,5.581
			c-4.52,0-8.184-1.651-10.993-4.954c-2.696-3.113-4.044-6.967-4.044-11.561c0-3.151,0.531-7.062,1.594-11.732
			c0.493-2.126,1.31-5.543,2.449-10.252h9.679l-1.173,17.275c-0.074,1.102-0.111,2.015-0.111,2.737c0,3.117,0.893,4.675,2.678,4.675
			c1.557,0,2.601-0.798,3.133-2.395c0.266-0.76,0.475-2.433,0.627-5.018l1.079-17.275h10.223c0,6.911-0.038,11.335-0.114,13.271
			L70.29,249.345z"/>
		<path d="M99.202,228.096l-0.797,8.5h-9.565l-0.513,4h8.484l-0.911,8.375h-8.483l-0.684,6.25h10.818l-1.139,11H78.705
			c-2.239-1.404-3.758-2.657-4.555-3.759c-1.025-1.404-1.537-3.283-1.537-5.637c0-2.43,0.626-5.618,1.879-9.567l3.131-9.908
			c0.076-0.266,0.133-0.702,0.171-1.31c0-0.228-0.133-0.379-0.398-0.455c-0.266-0.076-0.531-0.114-0.797-0.114h-2.277l1.594-7.375
			H99.202z"/>
		<path d="M129.036,252.697c0,2.924-0.873,5.629-2.619,8.115s-3.985,4.299-6.718,5.438c-0.456,0.19-2.107,0.284-4.953,0.284
			c-2.315,0-3.985-0.058-5.011-0.171c-5.883-0.646-8.824-3.762-8.824-9.348c0-2.394,0.75-5.898,2.25-10.516
			c1.5-4.616,2.25-8.103,2.25-10.458c0-0.418-0.399-0.607-1.196-0.57h-2.279l1.595-7.375h17.939c1.784,0,3.312,0.816,4.585,2.449
			c1.271,1.633,1.87,3.359,1.794,5.182c-0.038,1.443-0.399,2.829-1.084,4.157c-0.723,1.443-1.673,2.506-2.852,3.189
			C127.328,245.807,129.036,249.015,129.036,252.697z M117.098,250.906c0-2.125-0.609-3.188-1.827-3.188h-2.112l-0.686,8.768
			c0.837-0.493,1.94-1.233,3.312-2.221C116.66,253.392,117.098,252.273,117.098,250.906z M117.473,235.647
			c0.037-0.721-0.323-1.328-1.083-1.822c-0.76-0.493-1.501-0.683-2.222-0.569l-0.57,6.832
			C116.067,239.443,117.359,237.962,117.473,235.647z"/>
		<path d="M143.023,255.221h9.5l-1.139,11h-14.52c-2.012,0-3.568-1.118-4.668-3.356c-0.798-1.668-1.272-3.679-1.424-6.03
			c-0.227-3.831,0.095-8.649,0.968-14.451c0.835-5.651,1.898-10.393,3.189-14.225h8.996L143.023,255.221z"/>
		<path d="M183.231,245.886c0.226,5.2-0.875,9.868-3.305,14.004c-2.849,4.82-6.761,7.097-11.736,6.831
			c-4.406-0.228-7.863-2.295-10.369-6.204c-2.203-3.377-3.4-7.4-3.59-12.068c-0.227-5.123,1.007-9.772,3.703-13.947
			c2.887-4.479,6.514-6.718,10.883-6.718c0.531,0,1.081,0.038,1.651,0.114c4.141,0.531,7.35,2.676,9.629,6.433
			C181.995,237.481,183.04,241.332,183.231,245.886z M171.98,248.627c0.037-2.201-0.515-4.725-1.656-7.572
			c-1.371-3.416-3.008-5.124-4.911-5.124c-1.065,2.43-1.523,4.782-1.37,7.059c0.189,2.81,0.742,5.03,1.656,6.662
			c1.065,1.86,2.798,3.321,5.196,4.384c0.229-0.076,0.476-0.911,0.742-2.505C171.866,250.165,171.98,249.198,171.98,248.627z"/>
		<path d="M233.573,228.159c-1.316,17.588-1.975,30.275-1.975,38.062h-12.18c-2.885-9.185-5.066-14.328-6.545-15.43
			c-0.684,0.418-1.025,5.561-1.025,15.43h-9.25c0-7.103,0.418-13.484,1.254-19.145c0-0.152,0.93-6.458,2.791-18.918h9.51
			c0.797,6.162,3.342,11.068,7.631,14.719c0.229-0.304,0.438-2.757,0.627-7.359c0.152-3.765,0.229-6.218,0.229-7.359H233.573z"/>
		<path d="M264.842,249.345c-0.229,4.595-1.538,8.506-3.931,11.732c-2.696,3.721-6.227,5.581-10.595,5.581
			c-4.52,0-8.184-1.651-10.993-4.954c-2.696-3.113-4.044-6.967-4.044-11.561c0-3.151,0.531-7.062,1.594-11.732
			c0.493-2.126,1.31-5.543,2.449-10.252h9.679l-1.173,17.275c-0.074,1.102-0.111,2.015-0.111,2.737c0,3.117,0.893,4.675,2.678,4.675
			c1.557,0,2.602-0.798,3.133-2.395c0.266-0.76,0.475-2.433,0.627-5.018l1.079-17.275h10.223c0,6.911-0.038,11.335-0.114,13.271
			L264.842,249.345z"/>
		<path d="M293.753,228.096l-0.797,8.5h-9.565l-0.513,4h8.484l-0.911,8.375h-8.483l-0.684,6.25h10.818l-1.139,11h-17.708
			c-2.239-1.404-3.758-2.657-4.555-3.759c-1.025-1.404-1.537-3.283-1.537-5.637c0-2.43,0.626-5.618,1.879-9.567l3.131-9.908
			c0.076-0.266,0.133-0.702,0.171-1.31c0-0.228-0.133-0.379-0.398-0.455c-0.266-0.076-0.531-0.114-0.797-0.114h-2.277l1.594-7.375
			H293.753z"/>
		<path d="M315.96,266.221h-10.42c-6.719-19.457-10.078-31.974-10.078-37.55c0-0.266,0.02-0.437,0.057-0.513h10.25
			c1.404,5.609,2.959,11.198,4.668,16.769c0.607-1.629,1.348-4.093,2.221-7.39c0.949-3.638,1.803-6.764,2.562-9.379h10.42
			C325.639,231.649,322.413,244.336,315.96,266.221z"/>
		<path d="M356.375,245.886c0.227,5.2-0.875,9.868-3.305,14.004c-2.85,4.82-6.762,7.097-11.736,6.831
			c-4.406-0.228-7.863-2.295-10.369-6.204c-2.203-3.377-3.4-7.4-3.59-12.068c-0.227-5.123,1.006-9.772,3.703-13.947
			c2.887-4.479,6.514-6.718,10.883-6.718c0.531,0,1.08,0.038,1.65,0.114c4.141,0.531,7.35,2.676,9.629,6.433
			C355.139,237.481,356.184,241.332,356.375,245.886z M345.125,248.627c0.037-2.201-0.516-4.725-1.656-7.572
			c-1.371-3.416-3.008-5.124-4.912-5.124c-1.064,2.43-1.522,4.782-1.369,7.059c0.189,2.81,0.742,5.03,1.656,6.662
			c1.065,1.86,2.797,3.321,5.195,4.384c0.229-0.076,0.477-0.911,0.742-2.505C345.01,250.165,345.125,249.198,345.125,248.627z"/>
	</g>
</g>
</svg>
